{"title":"1920 Evil Returns (2012) 720p DVDRip x264 AC3 ESubs [DDR]","uid":7971615,"size":3385806617,"categoryP":"video","categoryS":"hd___movies","magnet":"?xt=urn:btih:b85e3108201f8980b29c00163043c1eb49f430d7&amp;dn=1920+Evil+Returns+%282012%29+720p+DVDRip+x264+AC3+ESubs+%5BDDR%5D&amp;tr=udp%3A%2F%2Ftracker.openbittorrent.com%3A80&amp;tr=udp%3A%2F%2Fopen.demonii.com%3A1337&amp;tr=udp%3A%2F%2Ftracker.coppersurfer.tk%3A6969&amp;tr=udp%3A%2F%2Fexodus.desync.com%3A6969","seeders":0,"leechers":1,"uploader":"SaM","files":-1,"time":1356865442,"description":"DDR Presents\n\nBollywood Movie\n\n1920: Evil Returns \n\n(2012)\n\n\n**720p DVDRip 5.1 AC3 ESubs**\n\nComplete name                            : 720p-dvdrip-1920er-ddr.mkv\nSource\t\t\t\t\t : DVD9 [DDR]\nRipper\t\t\t\t\t : th3obr0\n\nFormat                                   : Matroska\nFormat version                           : Version 2\nFile size                                : 3.12 GiB\nDuration                                 : 1h 59mn\nOverall bit rate                         : 3 748 Kbps\nEncoded date                             : UTC 2012-12-30 07:24:50\nWriting application                      : mkvmerge v5.7.0 ('The Whirlwind') built on Jul  8 \n\n2012 20:08:51\nWriting library                          : libebml v1.2.3 + libmatroska v1.3.0\n\nVideo\nID                                       : 1\nFormat                                   : AVC\nFormat/Info                              : Advanced Video Codec\nFormat profile                           : &lt;a class=&quot;__cf_email__&quot; href=&quot;/cdn-cgi/l/email-protection&quot; data-cfemail=&quot;2068494748606c140e12&quot;&gt;[email&amp;#160;protected]&lt;/a&gt;&lt;script cf-hash='f9e31' type=&quot;text/javascript&quot;&gt;\n/* &lt;![CDATA[ */!function(){try{var t=&quot;currentScript&quot;in document?document.currentScript:function(){for(var t=document.getElementsByTagName(&quot;script&quot;),e=t.length;e--;)if(t[e].getAttribute(&quot;cf-hash&quot;))return t[e]}();if(t&amp;&amp;t.previousSibling){var e,r,n,i,c=t.previousSibling,a=c.getAttribute(&quot;data-cfemail&quot;);if(a){for(e=&quot;&quot;,r=parseInt(a.substr(0,2),16),n=2;a.length-n;n+=2)i=parseInt(a.substr(n,2),16)^r,e+=String.fromCharCode(i);e=document.createTextNode(e),c.parentNode.replaceChild(e,c)}}}catch(u){}}();/* ]]&gt; */&lt;/script&gt;\nFormat settings, CABAC                   : Yes\nFormat settings, ReFrames                : 4 frames\nCodec ID                                 : V_MPEG4/ISO/AVC\nDuration                                 : 1h 59mn\nBit rate                                 : 3 297 Kbps\nWidth                                    : 1 280 pixels\nHeight                                   : 544 pixels\nDisplay aspect ratio                     : 2.35:1\nFrame rate                               : 29.970 fps\nColor space                              : YUV\nChroma subsampling                       : 4:2:0\nBit depth                                : 8 bits\nScan type                                : Progressive\nBits/(Pixel*Frame)                       : 0.158\nStream size                              : 2.69 GiB (86%)\nTitle                                    : 1920 720p [DDR]\nWriting library                          : x264 core 125 r2200 999b753\nDefault                                  : Yes\nForced                                   : No\n\nAudio\nID                                       : 2\nFormat                                   : AC-3\nFormat/Info                              : Audio Coding 3\nMode extension                           : CM (complete main)\nFormat settings, Endianness              : Big\nCodec ID                                 : A_AC3\nDuration                                 : 1h 59mn\nBit rate mode                            : Constant\nBit rate                                 : 448 Kbps\nChannel(s)                               : 6 channels\nChannel positions                        : Front: L C R, Side: L R, LFE\nSampling rate                            : 48.0 KHz\nBit depth                                : 16 bits\nCompression mode                         : Lossy\nStream size                              : 382 MiB (12%)\nTitle                                    : Hindi 5.1 [DDR]\nLanguage                                 : Hindi\nDefault                                  : Yes\nForced                                   : No\n &lt;a href=&quot;\nhttp://img580.imageshack.us/img580/2536/20573.png&quot; rel=&quot;nofollow&quot; target=&quot;_NEW&quot;&gt;\nhttp://img580.imageshack.us/img580/2536/20573.png&lt;/a&gt; &lt;a href=&quot;\nhttp://img707.imageshack.us/img707/4879/75360.png&quot; rel=&quot;nofollow&quot; target=&quot;_NEW&quot;&gt;\nhttp://img707.imageshack.us/img707/4879/75360.png&lt;/a&gt; &lt;a href=&quot;\nhttp://img138.imageshack.us/img138/7245/58747.png&quot; rel=&quot;nofollow&quot; target=&quot;_NEW&quot;&gt;\nhttp://img138.imageshack.us/img138/7245/58747.png&lt;/a&gt; &lt;a href=&quot;\nhttp://img24.imageshack.us/img24/1747/77694.png&quot; rel=&quot;nofollow&quot; target=&quot;_NEW&quot;&gt;\nhttp://img24.imageshack.us/img24/1747/77694.png&lt;/a&gt; &lt;a href=&quot;\nhttp://img705.imageshack.us/img705/1917/92959.png&quot; rel=&quot;nofollow&quot; target=&quot;_NEW&quot;&gt;\nhttp://img705.imageshack.us/img705/1917/92959.png&lt;/a&gt;\n\n","torrent":{"xt":"urn:btih:b85e3108201f8980b29c00163043c1eb49f430d7","amp;dn":"1920+Evil+Returns+%282012%29+720p+DVDRip+x264+AC3+ESubs+%5BDDR%5D","amp;tr":["udp%3A%2F%2Ftracker.openbittorrent.com%3A80","udp%3A%2F%2Fopen.demonii.com%3A1337","udp%3A%2F%2Ftracker.coppersurfer.tk%3A6969","udp%3A%2F%2Fexodus.desync.com%3A6969"],"infoHash":"b85e3108201f8980b29c00163043c1eb49f430d7","infoHashBuffer":{"type":"Buffer","data":[184,94,49,8,32,31,137,128,178,156,0,22,48,67,193,235,73,244,48,215]},"announce":[],"urlList":[]}}